<svg width="333" height="133" viewBox="0 0 333 133" xmlns="http://www.w3.org/2000/svg"><title>Fill 1</title><path d="M278.15 64.765l24.888 37.08h11.965v10.33h-21.415l-23.78-38.674-23.694 38.676h-21.977l.002-10.33h13.49l24.103-36.898-22.41-33.875h-14.617v-10.33h23.86l21.56 35.615 21.95-35.614h22.36v10.328H300.77l-22.62 33.693zm-72.156 36.202c-8.994 8.568-21.436 13.676-35.253 13.697h-.098c-13.85-.005-26.314-5.114-35.325-13.697-8.95-8.537-14.497-20.484-14.578-34.406l.053-.222.03-.132-.083-.283c.096-13.8 5.64-25.63 14.572-34.083 9.013-8.52 21.487-13.585 35.347-13.588 13.852.003 26.328 5.067 35.34 13.588 8.976 8.496 14.532 20.408 14.57 34.3-.004.04-.004.074-.004.082 0 .015 0 .03.002.042 0 .038.002.068.005.093-.024 13.995-5.58 26.027-14.58 34.61zM79.347 112.905H60.36L29.562 31.803H17.83v-11.79h23.575L69.94 98.742l28.453-78.726h23.48v11.79h-11.54l-30.986 81.1zM333 49.562V2.26l-126.856-.003v7.065C195.684 3.296 183.476-.008 170.658 0c-11.008-.007-21.566 2.428-30.952 6.933V2.257H81.59L69.96 29.835 58.325 2.257H0v47.305h17.243l30.8 81.102h43.595l15.28-39.993c3.503 9.013 8.91 17.03 15.73 23.486 12.49 11.92 29.617 18.778 48.01 18.765h.05c12.574 0 24.556-3.21 34.868-9.055v6.8h50.93l13.29-21.573 13.473 21.572h49.634V83.36H312.96L300.48 64.77l12.45-15.206H333zM181.93 79.258c-2.94 2.952-6.768 4.648-11.272 4.667-4.648-.027-8.417-1.727-11.32-4.645-2.853-2.953-4.858-7.117-4.894-13.007.04-5.755 2-9.78 4.825-12.68 2.874-2.86 6.676-4.57 11.388-4.596 4.568.018 8.427 1.725 11.34 4.62 2.87 2.934 4.835 6.96 4.874 12.656-.036 5.83-2.047 9.996-4.942 12.985zm13.077-38.502c-6.265-6.292-14.89-10-24.273-10.016-.03-.003-.052-.002-.057-.002h-.03c-9.502-.002-18.16 3.708-24.418 10.02-6.253 6.296-10.11 15.19-10.118 25.46v.05l.003.057c0 10.34 3.852 19.33 10.11 25.706 5.887 6.01 13.91 9.7 22.765 10.108v.04h3.98l-.026-.078c8.53-.553 16.306-4.206 22.07-10.066 6.26-6.354 10.157-15.31 10.183-25.644v-.832l-.01-.006c-.17-9.995-4.04-18.638-10.18-24.796z" fill="#FFDB00" fill-rule="evenodd"/></svg>